<svg width="167" height="167" viewBox="0 0 167 167" fill="none" xmlns="http://www.w3.org/2000/svg">
<path d="M123.09 0.360046H44.2603C20.2248 0.360046 0.740234 19.8446 0.740234 43.88V122.71C0.740234 146.745 20.2248 166.23 44.2603 166.23H123.09C147.126 166.23 166.61 146.745 166.61 122.71V43.88C166.61 19.8446 147.126 0.360046 123.09 0.360046Z" fill="#98D6E0"/>
<path d="M46.3803 63.43C46.2403 58.75 49.9303 54.84 54.6203 54.7C59.3003 54.56 63.2103 58.25 63.3503 62.94C63.4903 67.62 59.8003 71.53 55.1103 71.67C50.4303 71.81 46.5203 68.12 46.3803 63.43Z" fill="#333333"/>
<path d="M105.77 61.7101C105.63 57.0301 109.32 53.1201 114.01 52.9801C118.7 52.8401 122.6 56.53 122.74 61.22C122.88 65.91 119.19 69.8101 114.5 69.9501C109.82 70.0901 105.91 66.4001 105.77 61.7101Z" fill="#333333"/>
<path d="M95.4103 87.91C96.5903 87.05 97.7904 86.33 99.0004 85.82C104.7 83.45 107.67 89.75 110.17 92.69C112.01 94.85 113.79 97.58 112.7 100.77C110.64 106.81 102.43 111.99 97.6204 116.2C92.7404 120.47 87.9203 124.79 83.1503 129.17C79.6103 132.42 75.6604 137.06 70.8304 137.06C68.7704 137.06 67.4003 135.62 66.2203 134.24C64.1703 131.83 62.1904 129.35 60.2704 126.82C58.3904 124.34 58.8703 121.49 61.3503 118.34C62.9703 116.28 65.0803 114.59 67.1503 112.91C73.0603 108.11 78.8404 103.17 84.5004 98.08C87.7504 95.15 91.4603 90.77 95.4003 87.9L95.4103 87.91Z" fill="#333333"/>
<path d="M76.8403 87.9299C75.6603 87.0699 74.4603 86.35 73.2503 85.84C67.5503 83.46 64.5804 89.77 62.0804 92.7C60.2404 94.86 58.4603 97.59 59.5503 100.78C61.6103 106.82 69.8203 112 74.6303 116.21C79.5003 120.48 84.3303 124.8 89.0903 129.19C92.6303 132.44 96.5803 137.08 101.4 137.08C103.46 137.08 104.83 135.64 106.01 134.26C108.06 131.85 110.05 129.37 111.96 126.84C113.84 124.36 113.36 121.51 110.88 118.36C109.26 116.3 107.15 114.61 105.09 112.93C99.1903 108.13 93.4003 103.18 87.7503 98.1C84.5003 95.17 80.7903 90.79 76.8503 87.92L76.8403 87.9299Z" fill="#333333"/>
<path d="M64.1703 50.42C64.7803 50.71 65.4903 50.48 65.8403 49.89C66.7603 48.3 67.3703 46.52 67.6103 44.68C67.8603 42.72 44.4503 36.4 42.0503 35.79C36.2803 34.33 29.9603 32.71 23.7603 31.96C22.1803 31.77 21.6803 34.11 23.2003 34.62C28.8903 36.51 34.7903 38.03 40.3103 40.15C48.3903 43.25 56.3603 46.68 64.1803 50.43L64.1703 50.42Z" fill="#333333"/>
<path d="M104.23 49.26C103.64 49.58 102.91 49.4 102.53 48.83C101.52 47.3 100.81 45.55 100.46 43.73C100.09 41.79 123.1 34.12 125.47 33.38C131.14 31.59 137.36 29.61 143.51 28.5C145.08 28.22 145.71 30.53 144.22 31.12C138.65 33.33 132.84 35.2 127.46 37.63C119.57 41.19 111.82 45.07 104.22 49.27L104.23 49.26Z" fill="#333333"/>
</svg>
