<svg width="32" height="32" viewBox="0 0 32 32" fill="none" xmlns="http://www.w3.org/2000/svg">
<path d="M23.604 0H8.39598C3.75901 0 0 3.759 0 8.39597V23.604C0 28.241 3.75901 32 8.39598 32H23.604C28.241 32 32 28.241 32 23.604V8.39597C32 3.759 28.241 0 23.604 0Z" fill="#D0ECA8"/>
<path d="M12.6128 15.258C12.4238 15.258 12.2347 15.1866 12.0919 15.0419L8.18141 11.1314C7.89396 10.8439 7.89396 10.3751 8.18141 10.0877C8.46886 9.80021 8.93767 9.80021 9.22513 10.0877L13.1357 13.9982C13.4231 14.2856 13.4231 14.7544 13.1357 15.0419C12.991 15.1866 12.8019 15.258 12.6148 15.258H12.6128Z" fill="#090A0A"/>
<path d="M8.7023 15.258C8.51324 15.258 8.32417 15.1866 8.18141 15.0419C7.89396 14.7544 7.89396 14.2856 8.18141 13.9982L12.0919 10.0877C12.3813 9.80021 12.8482 9.80021 13.1357 10.0877C13.4231 10.3751 13.4231 10.8439 13.1357 11.1314L9.22513 15.0419C9.08043 15.1866 8.89137 15.258 8.70423 15.258H8.7023Z" fill="#090A0A"/>
<path d="M22.9451 15.258C22.756 15.258 22.567 15.1866 22.4242 15.0419L18.5137 11.1314C18.2262 10.8439 18.2262 10.3751 18.5137 10.0877C18.8011 9.80021 19.2699 9.80021 19.5574 10.0877L23.4679 13.9982C23.7554 14.2856 23.7554 14.7544 23.4679 15.0419C23.3232 15.1866 23.1342 15.258 22.947 15.258H22.9451Z" fill="#090A0A"/>
<path d="M19.0346 15.258C18.8455 15.258 18.6564 15.1866 18.5137 15.0419C18.2262 14.7544 18.2262 14.2856 18.5137 13.9982L22.4242 10.0877C22.7117 9.80021 23.1805 9.80021 23.4679 10.0877C23.7554 10.3751 23.7554 10.8439 23.4679 11.1314L19.5574 15.0419C19.4127 15.1866 19.2236 15.258 19.0365 15.258H19.0346Z" fill="#090A0A"/>
<path d="M22.4623 22.0914C21.8295 22.0914 21.1041 21.7982 20.2939 21.2117C19.6013 20.7101 19.0399 20.521 18.7949 20.7082C18.7158 20.768 18.627 20.8953 18.5344 21.0284C18.4013 21.2175 18.2527 21.4336 18.029 21.6226C17.2033 22.321 16.065 22.13 15.276 21.7191C14.9731 21.5609 14.703 21.3757 14.4406 21.1963C14.1435 20.9937 13.8638 20.8008 13.5763 20.6792C12.8837 20.3879 12.0194 20.5017 11.4272 20.9648C11.3461 21.0265 11.2632 21.1017 11.1764 21.1808C10.9256 21.4046 10.642 21.6574 10.2503 21.8117C9.0928 22.2708 8.12048 21.5686 7.33722 21.0053C6.89928 20.6889 6.48642 20.3918 6.08707 20.2857C5.49094 20.1294 4.75013 20.5365 4.56299 21.123C4.43952 21.5107 4.02473 21.7268 3.63696 21.6033C3.24918 21.4799 3.03311 21.0651 3.15658 20.6773C3.58487 19.3326 5.09738 18.5011 6.46327 18.86C7.12692 19.0355 7.69605 19.4465 8.19957 19.8092C8.94811 20.3474 9.33974 20.5866 9.70436 20.4419C9.85291 20.3821 10.0188 20.2355 10.1925 20.0792C10.2947 19.9886 10.3989 19.896 10.5166 19.8034C11.5333 19.0085 12.959 18.8195 14.1474 19.3211C14.5718 19.5005 14.9287 19.7436 15.2721 19.9809C15.5075 20.1429 15.7293 20.2953 15.955 20.413C16.3293 20.6079 16.8328 20.7005 17.0721 20.4979C17.1492 20.4323 17.2322 20.3127 17.3209 20.1873C17.4618 19.9866 17.6354 19.7358 17.8997 19.5352C18.4765 19.0973 19.5106 18.8253 21.1562 20.0194C21.87 20.5365 22.4237 20.7294 22.6764 20.55C22.7536 20.496 22.8424 20.3821 22.9369 20.2625C23.0064 20.1757 23.0758 20.0889 23.1491 20.0059C23.8108 19.267 24.8912 18.9564 25.9716 19.1957C27.05 19.4349 27.9008 20.1719 28.1902 21.121C28.3098 21.5107 28.0899 21.9236 27.7001 22.0413C27.3124 22.1589 26.8976 21.9409 26.7799 21.5512C26.6198 21.0246 26.0931 20.7352 25.6552 20.6368C25.2172 20.5403 24.6173 20.5808 24.2507 20.9918C24.1967 21.0516 24.1484 21.1133 24.0983 21.177C23.9574 21.3564 23.7819 21.5783 23.5292 21.7557C23.2089 21.9815 22.852 22.0934 22.4604 22.0934L22.4623 22.0914Z" fill="#090A0A"/>
</svg>
