<svg width="32" height="32" viewBox="0 0 32 32" fill="none" xmlns="http://www.w3.org/2000/svg">
<path d="M23.604 0H8.39597C3.759 0 0 3.75901 0 8.39598V23.604C0 28.241 3.759 32 8.39597 32H23.604C28.241 32 32 28.241 32 23.604V8.39598C32 3.75901 28.241 0 23.604 0Z" fill="#D2CBFF"/>
<path d="M10.7147 20.2626C11.6822 20.2626 12.4665 18.941 12.4665 17.3108C12.4665 15.6807 11.6822 14.3591 10.7147 14.3591C9.74729 14.3591 8.96301 15.6807 8.96301 17.3108C8.96301 18.941 9.74729 20.2626 10.7147 20.2626Z" fill="white"/>
<path d="M22.2901 20.2626C23.2575 20.2626 24.0418 18.941 24.0418 17.3108C24.0418 15.6807 23.2575 14.3591 22.2901 14.3591C21.3226 14.3591 20.5383 15.6807 20.5383 17.3108C20.5383 18.941 21.3226 20.2626 22.2901 20.2626Z" fill="white"/>
<path d="M10.7148 19.4773C11.4244 19.4773 11.9997 18.5073 11.9997 17.3108C11.9997 16.1143 11.4244 15.1443 10.7148 15.1443C10.0052 15.1443 9.42993 16.1143 9.42993 17.3108C9.42993 18.5073 10.0052 19.4773 10.7148 19.4773Z" fill="#090A0A"/>
<path d="M22.3037 19.4773C23.0133 19.4773 23.5885 18.5073 23.5885 17.3108C23.5885 16.1143 23.0133 15.1443 22.3037 15.1443C21.5941 15.1443 21.0188 16.1143 21.0188 17.3108C21.0188 18.5073 21.5941 19.4773 22.3037 19.4773Z" fill="#090A0A"/>
<path d="M27.8521 10.8172C27.8521 12.2468 27.2791 12.6538 26.492 12.6538C25.7049 12.6538 24.9988 12.2468 24.9988 10.8172C24.9988 9.38767 25.5853 6.43018 26.3724 6.43018C27.1595 6.43018 27.8521 9.38767 27.8521 10.8172Z" fill="white"/>
<path d="M18.8137 7.73628C18.8137 8.84944 18.368 9.1639 17.7545 9.1639C17.141 9.1639 16.5931 8.84751 16.5931 7.73628C16.5931 6.62505 17.0484 4.32349 17.6619 4.32349C18.2754 4.32349 18.8137 6.62312 18.8137 7.73628Z" fill="white"/>
<path d="M8.42666 10.8846C8.42666 11.9939 7.98294 12.3103 7.37138 12.3103C6.75981 12.3103 6.21191 11.9958 6.21191 10.8846C6.21191 9.77334 6.66721 7.47949 7.27877 7.47949C7.89034 7.47949 8.42666 9.77334 8.42666 10.8846Z" fill="white"/>
<path d="M13.3115 9.30646C13.3115 10.0704 13.0066 10.2865 12.5861 10.2865C12.1655 10.2865 11.7893 10.0704 11.7893 9.30646C11.7893 8.54248 12.1018 6.96631 12.5224 6.96631C12.943 6.96631 13.3115 8.54441 13.3115 9.30646Z" fill="white"/>
<path d="M21.7962 10.6976C21.7962 11.4615 21.4914 11.6776 21.0708 11.6776C20.6502 11.6776 20.274 11.4615 20.274 10.6976C20.274 9.9336 20.5866 8.35742 21.0071 8.35742C21.4277 8.35742 21.7962 9.93553 21.7962 10.6976Z" fill="white"/>
<path d="M19.6232 25.9847C19.825 26.049 20.0268 25.901 19.9971 25.7183C19.7449 24.1854 18.052 23 16 23C13.948 23 12.2551 24.1841 12.0029 25.717C11.9732 25.901 12.1765 26.0478 12.3768 25.9834L14.3101 25.3643C15.3872 25.0194 16.5712 25.0168 17.6499 25.3592L19.6217 25.9847H19.6232Z" fill="#090A0A"/>
</svg>
