<svg width="32" height="32" viewBox="0 0 32 32" fill="none" xmlns="http://www.w3.org/2000/svg">
<path d="M23.604 0H8.39598C3.75901 0 0 3.759 0 8.39597V23.604C0 28.241 3.75901 32 8.39598 32H23.604C28.241 32 32 28.241 32 23.604V8.39597C32 3.759 28.241 0 23.604 0Z" fill="#FDC013"/>
<path d="M4.92337 12.7193C4.91179 12.6923 4.90407 12.6653 4.89829 12.6364C4.59154 10.9136 7.87893 10.4737 8.93421 10.8055C9.47633 10.9753 10.0223 11.2724 10.4544 11.6409C10.6223 11.7836 11.6949 13.1264 10.9232 13.1437C10.8094 13.1457 10.7052 13.082 10.6126 13.0145C9.90654 12.5168 9.53228 11.7779 8.64291 11.5656C7.66672 11.3322 6.59793 11.6486 5.91498 12.3875C5.69891 12.6209 5.1568 13.2846 4.92337 12.7174V12.7193Z" fill="#090A0A"/>
<path d="M26.6233 12.7193C26.6348 12.6923 26.6426 12.6653 26.6483 12.6364C26.9551 10.9136 23.6677 10.4737 22.6124 10.8055C22.0703 10.9753 21.5243 11.2724 21.0922 11.6409C20.9243 11.7836 19.8517 13.1264 20.6234 13.1437C20.7372 13.1457 20.8414 13.082 20.934 13.0145C21.6401 12.5168 22.0143 11.7779 22.9037 11.5656C23.8799 11.3322 24.9487 11.6486 25.6316 12.3875C25.8477 12.6209 26.3898 13.2846 26.6233 12.7174V12.7193Z" fill="#090A0A"/>
<path d="M9.55934 18.725C13.5123 20.0851 18.1077 20.0022 22.053 18.6401C23.4845 18.1462 24.8523 17.4517 26.0522 16.5257C26.4265 16.2363 27.1133 15.6305 27.5513 16.1939C27.8021 16.518 27.5918 17.0562 27.4181 17.3649C26.9995 18.1173 26.2567 18.6478 25.5796 19.1494C24.6902 19.8073 23.7005 20.3301 22.68 20.7526C20.9417 21.4684 19.0743 21.8407 17.2029 21.9661C16.4987 22.0143 15.7907 22.0259 15.0846 22.0047C15.0634 22.0047 15.0441 22.0047 15.0229 22.0047C14.0178 21.9719 13.0146 21.8677 12.0249 21.6941C10.1381 21.3642 8.29763 20.716 6.62885 19.7745C6.4475 19.6723 6.26616 19.5661 6.08674 19.4562C5.48868 19.0916 4.91184 18.7231 4.56844 18.0845C4.44304 17.853 4.37359 17.5771 4.4469 17.3244C4.5723 16.8961 5.03531 16.7379 5.43852 16.8247C6.07323 16.9598 6.58641 17.3263 7.14202 17.6369C7.72851 17.9649 8.33814 18.2543 8.96321 18.5031C9.16192 18.5822 9.3587 18.6556 9.55934 18.7231V18.725Z" fill="#090A0A"/>
</svg>
