<svg width="32" height="32" viewBox="0 0 32 32" fill="none" xmlns="http://www.w3.org/2000/svg">
<path d="M23.604 0H8.39597C3.759 0 0 3.75901 0 8.39598V23.604C0 28.241 3.759 32 8.39597 32H23.604C28.241 32 32 28.241 32 23.604V8.39598C32 3.75901 28.241 0 23.604 0Z" fill="#D2CBFF"/>
<path d="M9.05948 15.1153C9.82556 15.1153 10.4466 14.0676 10.4466 12.7752C10.4466 11.4828 9.82556 10.4351 9.05948 10.4351C8.2934 10.4351 7.67236 11.4828 7.67236 12.7752C7.67236 14.0676 8.2934 15.1153 9.05948 15.1153Z" fill="#090A0A"/>
<path d="M22.9403 15.1153C23.7064 15.1153 24.3274 14.0676 24.3274 12.7752C24.3274 11.4828 23.7064 10.4351 22.9403 10.4351C22.1743 10.4351 21.5532 11.4828 21.5532 12.7752C21.5532 14.0676 22.1743 15.1153 22.9403 15.1153Z" fill="#090A0A"/>
<path d="M7.10693 21.1001C7.3095 22.1901 8.26447 23.0177 9.41235 23.0177H9.70367V21.1001H7.10693Z" fill="white"/>
<path d="M22.8569 23.0023C23.8833 22.8846 24.709 22.1052 24.8942 21.1001H22.8569V23.0023Z" fill="white"/>
<path d="M24.9 20.2435C24.7302 19.2191 23.8968 18.4185 22.8569 18.3008V20.2435H24.9Z" fill="white"/>
<path d="M22.0008 18.2852H19.7822V20.2452H22.0008V18.2852Z" fill="white"/>
<path d="M12.7792 18.2852H10.5605V20.2452H12.7792V18.2852Z" fill="white"/>
<path d="M15.8524 18.2852H13.6338V20.2452H15.8524V18.2852Z" fill="white"/>
<path d="M18.9271 18.2852H16.7085V20.2452H18.9271V18.2852Z" fill="white"/>
<path d="M9.7036 18.2852H9.41228C8.25089 18.2852 7.28628 19.134 7.10107 20.2452H9.7036V18.2852Z" fill="white"/>
<path d="M18.9271 21.1001H16.7085V23.0177H18.9271V21.1001Z" fill="white"/>
<path d="M15.8524 21.1001H13.6338V23.0177H15.8524V21.1001Z" fill="white"/>
<path d="M12.7792 21.1001H10.5605V23.0177H12.7792V21.1001Z" fill="white"/>
<path d="M22.0008 21.1001H19.7822V23.0177H22.0008V21.1001Z" fill="white"/>
<path d="M22.5891 17.4287H9.41247C7.64723 17.4287 6.20996 18.866 6.20996 20.6312V20.6736C6.20996 20.4363 6.40095 20.2453 6.63825 20.2453H6.66912C6.85818 18.8968 8.01186 17.857 9.41247 17.857H9.74815C9.81761 17.7142 9.9623 17.6158 10.1321 17.6158C10.3018 17.6158 10.4465 17.7142 10.516 17.857H12.8233C12.8928 17.7142 13.0375 17.6158 13.2073 17.6158C13.377 17.6158 13.5217 17.7142 13.5912 17.857H15.8985C15.968 17.7142 16.1127 17.6158 16.2824 17.6158C16.4522 17.6158 16.5969 17.7142 16.6663 17.857H18.9737C19.0431 17.7142 19.1878 17.6158 19.3576 17.6158C19.5274 17.6158 19.6721 17.7142 19.7415 17.857H22.0489C22.1183 17.7142 22.263 17.6158 22.4328 17.6158C22.6026 17.6158 22.755 17.72 22.8225 17.8686C24.1247 17.9747 25.1684 18.9798 25.3401 20.2608C25.5215 20.3109 25.6565 20.4749 25.6565 20.6717C25.6565 20.8685 25.5195 21.0383 25.3343 21.0846C25.1472 22.3347 24.1286 23.3109 22.8591 23.4324C22.8418 23.6524 22.6604 23.8279 22.4347 23.8279C22.209 23.8279 22.0354 23.6601 22.0122 23.4459H19.784C19.7608 23.6601 19.5814 23.8279 19.3615 23.8279C19.1415 23.8279 18.9621 23.6601 18.939 23.4459H16.7107C16.6876 23.6601 16.5082 23.8279 16.2882 23.8279C16.0683 23.8279 15.8889 23.6601 15.8657 23.4459H13.6375C13.6143 23.6601 13.4349 23.8279 13.215 23.8279C12.995 23.8279 12.8156 23.6601 12.7925 23.4459H10.5642C10.5411 23.6601 10.3616 23.8279 10.1417 23.8279C9.92178 23.8279 9.74237 23.6601 9.71922 23.4459H9.42211C8.03693 23.4459 6.89098 22.4292 6.68455 21.1H6.6479C6.4106 21.1 6.21961 20.909 6.21961 20.6717C6.21961 22.4369 7.65688 23.8742 9.42211 23.8742H22.5987C24.3639 23.8742 25.8012 22.4369 25.8012 20.6717V20.6293C25.8012 18.864 24.3639 17.4268 22.5987 17.4268L22.5891 17.4287Z" fill="#090A0A"/>
<path d="M18.9256 23.0176H16.707V23.3996C16.707 23.415 16.7031 23.4304 16.7031 23.4459H18.9314C18.9314 23.4304 18.9275 23.415 18.9275 23.3996V23.0176H18.9256Z" fill="#090A0A"/>
<path d="M9.70369 23.0177H9.41237C8.26448 23.0177 7.30952 22.1901 7.10695 21.1001H6.6748C6.88123 22.4274 8.02526 23.446 9.41237 23.446H9.70947C9.70947 23.4306 9.70561 23.4152 9.70561 23.3997V23.0177H9.70369Z" fill="#090A0A"/>
<path d="M19.7822 18.2852H22.0008V18.0441C22.0008 17.9765 22.0181 17.9148 22.0451 17.8569H19.7378C19.7648 17.9129 19.7822 17.9765 19.7822 18.0441V18.2852Z" fill="#090A0A"/>
<path d="M15.8523 23.0176H13.6337V23.3996C13.6337 23.415 13.6299 23.4304 13.6299 23.4459H15.8581C15.8581 23.4304 15.8543 23.415 15.8543 23.3996V23.0176H15.8523Z" fill="#090A0A"/>
<path d="M9.4123 18.2852H9.70361V18.0441C9.70361 17.9765 9.72097 17.9148 9.74798 17.8569H9.4123C8.01168 17.8569 6.85608 18.8968 6.66895 20.2453H7.10109C7.2863 19.136 8.25091 18.2852 9.4123 18.2852Z" fill="#090A0A"/>
<path d="M22.0008 23.0176H19.7822V23.3996C19.7822 23.415 19.7783 23.4304 19.7783 23.4459H22.0066C22.0066 23.4304 22.0027 23.415 22.0027 23.3996V23.0176H22.0008Z" fill="#090A0A"/>
<path d="M12.7771 23.0176H10.5585V23.3996C10.5585 23.415 10.5547 23.4304 10.5547 23.4459H12.7829C12.7829 23.4304 12.7791 23.415 12.7791 23.3996V23.0176H12.7771Z" fill="#090A0A"/>
<path d="M16.7089 18.2852H18.9275V18.0441C18.9275 17.9765 18.9449 17.9148 18.9719 17.8569H16.6646C16.6916 17.9129 16.7089 17.9765 16.7089 18.0441V18.2852Z" fill="#090A0A"/>
<path d="M13.6337 18.2852H15.8523V18.0441C15.8523 17.9765 15.8697 17.9148 15.8967 17.8569H13.5894C13.6164 17.9129 13.6337 17.9765 13.6337 18.0441V18.2852Z" fill="#090A0A"/>
<path d="M22.8574 18.3008C23.8973 18.4204 24.7307 19.221 24.9005 20.2435H25.2226C25.2612 20.2435 25.2998 20.2512 25.3345 20.2609C25.1628 18.978 24.1191 17.9748 22.8169 17.8687C22.84 17.9227 22.8555 17.9805 22.8555 18.0442V18.3027L22.8574 18.3008Z" fill="#090A0A"/>
<path d="M10.5605 18.2852H12.7791V18.0441C12.7791 17.9765 12.7965 17.9148 12.8235 17.8569H10.5161C10.5431 17.9129 10.5605 17.9765 10.5605 18.0441V18.2852Z" fill="#090A0A"/>
<path d="M24.8946 21.0999C24.7094 22.1031 23.8837 22.8844 22.8574 23.0021V23.3995C22.8574 23.4111 22.8554 23.4208 22.8535 23.4323C24.1249 23.3127 25.1416 22.3346 25.3287 21.0845C25.294 21.0922 25.2593 21.0999 25.2226 21.0999H24.8927H24.8946Z" fill="#090A0A"/>
<path d="M15.8524 20.6714H13.6338V21.0997H15.8524V20.6714Z" fill="#090A0A"/>
<path d="M22.0008 20.2432H19.7822V20.6715H22.0008V20.2432Z" fill="#090A0A"/>
<path d="M18.9271 20.2432H16.7085V20.6715H18.9271V20.2432Z" fill="#090A0A"/>
<path d="M18.9271 20.6714H16.7085V21.0997H18.9271V20.6714Z" fill="#090A0A"/>
<path d="M22.8569 20.6715H24.9347V20.629C24.9347 20.4978 24.9212 20.3686 24.9 20.2432H22.8569V20.6715Z" fill="#090A0A"/>
<path d="M15.8524 20.2432H13.6338V20.6715H15.8524V20.2432Z" fill="#090A0A"/>
<path d="M22.8569 20.7528H24.8942C24.9193 20.5445 24.9347 20.3303 24.9347 20.1123H22.8569V20.7528Z" fill="#090A0A"/>
<path d="M22.0008 20.6714H19.7822V21.0997H22.0008V20.6714Z" fill="#090A0A"/>
<path d="M12.7792 20.2432H10.5605V20.6715H12.7792V20.2432Z" fill="#090A0A"/>
<path d="M9.70366 20.2432H7.10113C7.07991 20.3686 7.06641 20.4978 7.06641 20.629V20.6715H9.70366V20.2432Z" fill="#090A0A"/>
<path d="M12.7792 20.6714H10.5605V21.0997H12.7792V20.6714Z" fill="#090A0A"/>
<path d="M9.70366 21.0997V20.6714H7.06641C7.06641 20.818 7.08184 20.9608 7.10692 21.0997H9.70366Z" fill="#090A0A"/>
<path d="M25.3633 20.6717C25.3633 20.8125 25.3498 20.9495 25.3286 21.0845C25.5138 21.0382 25.6508 20.8704 25.6508 20.6717C25.6508 20.473 25.5157 20.3109 25.3344 20.2607C25.3498 20.3823 25.3614 20.5038 25.3614 20.6292V20.6717H25.3633Z" fill="#090A0A"/>
<path d="M6.63825 21.0997H6.6749C6.65368 20.9608 6.63825 20.8181 6.63825 20.6715V20.629C6.63825 20.4978 6.64982 20.3686 6.66912 20.2432H6.63825C6.40095 20.2432 6.20996 20.4342 6.20996 20.6715C6.20996 20.9087 6.40095 21.0997 6.63825 21.0997Z" fill="#090A0A"/>
<path d="M24.9003 20.2432C24.9215 20.3686 24.935 20.4978 24.935 20.629V20.6715C24.935 20.8181 24.9196 20.9608 24.8945 21.0997H25.2244C25.2611 21.0997 25.2958 21.0939 25.3305 21.0843C25.3498 20.9493 25.3653 20.8123 25.3653 20.6715V20.629C25.3653 20.5036 25.3537 20.3801 25.3382 20.2605C25.3016 20.2509 25.2649 20.2432 25.2264 20.2432H24.9042H24.9003Z" fill="#090A0A"/>
<path d="M6.63818 20.6715H7.06647V20.629C7.06647 20.4978 7.07998 20.3686 7.1012 20.2432H6.66905C6.65169 20.3705 6.63818 20.4978 6.63818 20.629V20.6715Z" fill="#090A0A"/>
<path d="M7.06647 20.6714H6.63818C6.63818 20.818 6.65362 20.9588 6.67484 21.0997H7.10699C7.08191 20.9608 7.06647 20.818 7.06647 20.6714Z" fill="#090A0A"/>
<path d="M10.1319 18.2852H9.70361V20.2452H10.1319V18.2852Z" fill="#090A0A"/>
<path d="M10.1319 21.1001H9.70361V23.0177H10.1319V21.1001Z" fill="#090A0A"/>
<path d="M10.5601 18.2852H10.1318V20.2452H10.5601V18.2852Z" fill="#090A0A"/>
<path d="M10.5601 21.1001H10.1318V23.0177H10.5601V21.1001Z" fill="#090A0A"/>
<path d="M10.132 23.8278C10.3519 23.8278 10.5313 23.6599 10.5545 23.4458H9.70752C9.73067 23.6599 9.91009 23.8278 10.13 23.8278H10.132Z" fill="#090A0A"/>
<path d="M10.132 17.6138C9.96219 17.6138 9.8175 17.7122 9.74805 17.8549H10.5159C10.4464 17.7122 10.3017 17.6138 10.132 17.6138Z" fill="#090A0A"/>
<path d="M10.5602 23.0176H10.1319H9.70361V23.3996C9.70361 23.415 9.70747 23.4304 9.70747 23.4459H10.5544C10.5544 23.4304 10.5583 23.415 10.5583 23.3996V23.0176H10.5602Z" fill="#090A0A"/>
<path d="M9.70361 18.2852H10.1319H10.5602V18.0441C10.5602 17.9765 10.5428 17.9148 10.5158 17.8569H9.74798C9.72097 17.9129 9.70361 17.9765 9.70361 18.0441V18.2852Z" fill="#090A0A"/>
<path d="M10.1319 20.6714H9.70361V21.0997H10.1319V20.6714Z" fill="#090A0A"/>
<path d="M10.1319 20.2432H9.70361V20.6715H10.1319V20.2432Z" fill="#090A0A"/>
<path d="M10.5601 20.2432H10.1318V20.6715H10.5601V20.2432Z" fill="#090A0A"/>
<path d="M10.5601 20.6714H10.1318V21.0997H10.5601V20.6714Z" fill="#090A0A"/>
<path d="M13.6334 21.1001H13.2051V23.0177H13.6334V21.1001Z" fill="#090A0A"/>
<path d="M13.6334 18.2852H13.2051V20.2452H13.6334V18.2852Z" fill="#090A0A"/>
<path d="M13.2051 18.2852H12.7769V20.2452H13.2051V18.2852Z" fill="#090A0A"/>
<path d="M13.2051 21.1001H12.7769V23.0177H13.2051V21.1001Z" fill="#090A0A"/>
<path d="M13.2052 17.6138C13.0354 17.6138 12.8907 17.7122 12.8213 17.8549H13.5891C13.5197 17.7122 13.375 17.6138 13.2052 17.6138Z" fill="#090A0A"/>
<path d="M13.2052 23.8278C13.4251 23.8278 13.6045 23.6599 13.6277 23.4458H12.7808C12.8039 23.6599 12.9833 23.8278 13.2033 23.8278H13.2052Z" fill="#090A0A"/>
<path d="M13.6334 23.0176H13.2051H12.7769V23.3996C12.7769 23.415 12.7807 23.4304 12.7807 23.4459H13.6276C13.6276 23.4304 13.6315 23.415 13.6315 23.3996V23.0176H13.6334Z" fill="#090A0A"/>
<path d="M12.7769 18.2852H13.2051H13.6334V18.0441C13.6334 17.9765 13.6161 17.9148 13.5891 17.8569H12.8212C12.7942 17.9129 12.7769 17.9765 12.7769 18.0441V18.2852Z" fill="#090A0A"/>
<path d="M13.2051 20.2432H12.7769V20.6715H13.2051V20.2432Z" fill="#090A0A"/>
<path d="M13.2051 20.6714H12.7769V21.0997H13.2051V20.6714Z" fill="#090A0A"/>
<path d="M13.6334 20.2432H13.2051V20.6715H13.6334V20.2432Z" fill="#090A0A"/>
<path d="M13.6334 20.6714H13.2051V21.0997H13.6334V20.6714Z" fill="#090A0A"/>
<path d="M16.7086 18.2852H16.2803V20.2452H16.7086V18.2852Z" fill="#090A0A"/>
<path d="M16.2803 21.1001H15.8521V23.0177H16.2803V21.1001Z" fill="#090A0A"/>
<path d="M16.2803 18.2852H15.8521V20.2452H16.2803V18.2852Z" fill="#090A0A"/>
<path d="M16.7086 21.1001H16.2803V23.0177H16.7086V21.1001Z" fill="#090A0A"/>
<path d="M16.2804 23.8278C16.5003 23.8278 16.6797 23.6599 16.7029 23.4458H15.856C15.8791 23.6599 16.0585 23.8278 16.2785 23.8278H16.2804Z" fill="#090A0A"/>
<path d="M16.2804 17.6138C16.1106 17.6138 15.9659 17.7122 15.8965 17.8549H16.6643C16.5949 17.7122 16.4502 17.6138 16.2804 17.6138Z" fill="#090A0A"/>
<path d="M16.7086 23.0176H16.2803H15.8521V23.3996C15.8521 23.415 15.8559 23.4304 15.8559 23.4459H16.7028C16.7028 23.4304 16.7067 23.415 16.7067 23.3996V23.0176H16.7086Z" fill="#090A0A"/>
<path d="M15.8521 18.2852H16.2803H16.7086V18.0441C16.7086 17.9765 16.6913 17.9148 16.6643 17.8569H15.8964C15.8694 17.9129 15.8521 17.9765 15.8521 18.0441V18.2852Z" fill="#090A0A"/>
<path d="M16.7086 20.6714H16.2803V21.0997H16.7086V20.6714Z" fill="#090A0A"/>
<path d="M16.2803 20.6714H15.8521V21.0997H16.2803V20.6714Z" fill="#090A0A"/>
<path d="M16.7086 20.2432H16.2803V20.6715H16.7086V20.2432Z" fill="#090A0A"/>
<path d="M16.2803 20.2432H15.8521V20.6715H16.2803V20.2432Z" fill="#090A0A"/>
<path d="M19.3536 21.1001H18.9253V23.0177H19.3536V21.1001Z" fill="#090A0A"/>
<path d="M19.7818 21.1001H19.3535V23.0177H19.7818V21.1001Z" fill="#090A0A"/>
<path d="M19.7818 18.2852H19.3535V20.2452H19.7818V18.2852Z" fill="#090A0A"/>
<path d="M19.3536 18.2852H18.9253V20.2452H19.3536V18.2852Z" fill="#090A0A"/>
<path d="M19.3536 23.8278C19.5736 23.8278 19.753 23.6599 19.7761 23.4458H18.9292C18.9523 23.6599 19.1318 23.8278 19.3517 23.8278H19.3536Z" fill="#090A0A"/>
<path d="M19.3536 17.6138C19.1839 17.6138 19.0392 17.7122 18.9697 17.8549H19.7376C19.6681 17.7122 19.5234 17.6138 19.3536 17.6138Z" fill="#090A0A"/>
<path d="M19.7819 23.0176H19.3536H18.9253V23.3996C18.9253 23.415 18.9291 23.4304 18.9291 23.4459H19.7761C19.7761 23.4304 19.7799 23.415 19.7799 23.3996V23.0176H19.7819Z" fill="#090A0A"/>
<path d="M18.9253 18.2852H19.3536H19.7819V18.0441C19.7819 17.9765 19.7645 17.9148 19.7375 17.8569H18.9697C18.9427 17.9129 18.9253 17.9765 18.9253 18.0441V18.2852Z" fill="#090A0A"/>
<path d="M19.3536 20.6714H18.9253V21.0997H19.3536V20.6714Z" fill="#090A0A"/>
<path d="M19.7818 20.2432H19.3535V20.6715H19.7818V20.2432Z" fill="#090A0A"/>
<path d="M19.7818 20.6714H19.3535V21.0997H19.7818V20.6714Z" fill="#090A0A"/>
<path d="M19.3536 20.2432H18.9253V20.6715H19.3536V20.2432Z" fill="#090A0A"/>
<path d="M22.4288 18.2852H22.0005V20.2452H22.4288V18.2852Z" fill="#090A0A"/>
<path d="M22.4287 21.1001V23.0177H22.5888C22.6795 23.0177 22.7683 23.0119 22.857 23.0004V21.0981H22.4287V21.1001Z" fill="#090A0A"/>
<path d="M22.4288 21.1001H22.0005V23.0177H22.4288V21.1001Z" fill="#090A0A"/>
<path d="M22.857 20.2433V18.3006C22.7683 18.2909 22.6795 18.2852 22.5888 18.2852H22.4287V20.2452H22.857V20.2433Z" fill="#090A0A"/>
<path d="M22.8185 17.8685C22.751 17.7199 22.6025 17.6157 22.4288 17.6157C22.2552 17.6157 22.1144 17.7141 22.0449 17.8569H22.589C22.6661 17.8569 22.7433 17.8627 22.8185 17.8685Z" fill="#090A0A"/>
<path d="M22.0044 23.4456C22.0275 23.6598 22.2069 23.8276 22.4269 23.8276C22.6468 23.8276 22.8339 23.654 22.8513 23.4321C22.7645 23.4398 22.6757 23.4456 22.587 23.4456H22.0024H22.0044Z" fill="#090A0A"/>
<path d="M22.8571 23.002C22.7683 23.0116 22.6796 23.0193 22.5889 23.0193H22.4288H22.0005V23.4013C22.0005 23.4167 22.0043 23.4322 22.0043 23.4476H22.5889C22.6776 23.4476 22.7664 23.4418 22.8532 23.4341C22.8532 23.4225 22.8571 23.4129 22.8571 23.4013V23.0039V23.002Z" fill="#090A0A"/>
<path d="M22.0005 18.2852H22.4288H22.5889C22.6796 18.2852 22.7683 18.291 22.8571 18.3006V18.0421C22.8571 17.9804 22.8436 17.9206 22.8185 17.8666C22.7432 17.8608 22.6661 17.855 22.5889 17.855H22.0449C22.0179 17.9109 22.0005 17.9746 22.0005 18.0421V18.2833V18.2852Z" fill="#090A0A"/>
<path d="M22.857 20.6714H22.4287V21.0997H22.857V20.6714Z" fill="#090A0A"/>
<path d="M22.4288 20.6714H22.0005V21.0997H22.4288V20.6714Z" fill="#090A0A"/>
<path d="M22.857 20.2432H22.4287V20.6715H22.857V20.2432Z" fill="#090A0A"/>
<path d="M22.4288 20.2432H22.0005V20.6715H22.4288V20.2432Z" fill="#090A0A"/>
</svg>
