<svg width="32" height="32" viewBox="0 0 32 32" fill="none" xmlns="http://www.w3.org/2000/svg">
<path d="M23.6026 0H8.39546C3.75877 0 0 3.75878 0 8.39547V23.6026C0 28.2393 3.75877 31.9981 8.39546 31.9981H23.6026C28.2393 31.9981 31.9981 28.2393 31.9981 23.6026V8.39547C31.9981 3.75878 28.2393 0 23.6026 0Z" fill="#D0ECA8"/>
<path d="M23.3557 10.5214H19.9161C18.4809 10.5214 17.3157 11.6634 17.2752 13.089H14.6998C14.6574 11.6634 13.4922 10.5214 12.0589 10.5214H8.61929C7.15896 10.5214 5.97449 11.7058 5.97449 13.1662V15.0644C5.97449 16.5247 7.15896 17.7092 8.61929 17.7092H12.0589C13.5192 17.7092 14.7037 16.5247 14.7037 15.0644V14.3719H17.2713V15.0644C17.2713 16.5247 18.4558 17.7092 19.9161 17.7092H23.3557C24.8161 17.7092 26.0005 16.5247 26.0005 15.0644V13.1662C26.0005 11.7058 24.8161 10.5214 23.3557 10.5214Z" fill="#090A0A"/>
<path d="M6.62074 11.2582L6.30821 11.1598C6.08637 11.0904 5.84716 11.1984 5.75649 11.4145L5.44398 12.1476C5.34366 12.3829 5.45748 12.653 5.69476 12.7456L6.01307 12.871C6.24456 12.9616 6.50305 12.8478 6.59758 12.6183L6.90431 11.8582C7.0027 11.6132 6.87344 11.3373 6.62266 11.2582H6.62074Z" fill="#090A0A"/>
<path d="M25.4642 11.2582L25.7767 11.1598C25.9986 11.0904 26.2378 11.1984 26.3285 11.4145L26.641 12.1476C26.7413 12.3829 26.6275 12.653 26.3902 12.7456L26.0719 12.871C25.8404 12.9616 25.5819 12.8478 25.4874 12.6183L25.1806 11.8582C25.0823 11.6132 25.2115 11.3373 25.4623 11.2582H25.4642Z" fill="#090A0A"/>
<path d="M5.75451 11.4126L0 8.55371V9.83849L5.442 12.1476L5.75451 11.4126Z" fill="#090A0A"/>
<path d="M26.2012 11.4126L32.0001 8.57874V9.86545L26.5137 12.1476L26.2012 11.4126Z" fill="#090A0A"/>
<path d="M12.6511 22.4644C13.145 22.4702 13.6388 22.4953 14.1211 22.503C15.8438 22.53 17.5645 22.4914 19.2699 22.2233C20.192 22.0786 21.2974 21.9358 22.1115 21.4574C22.6323 21.1526 23.076 20.7514 23.5641 20.4022C23.8341 20.2093 24.4341 19.7116 24.791 19.9604C24.9087 20.0415 24.9029 20.2151 24.8759 20.3559C24.6444 21.5751 23.8284 22.6187 22.9545 23.4618C22.1578 24.2295 21.2511 24.8777 20.1824 25.2037C18.9207 25.5876 17.5646 25.7323 16.2508 25.7439C14.8291 25.7555 13.2434 25.7362 11.9528 25.0668C11.6383 24.9047 11.347 24.7022 11.0905 24.4572C10.8628 24.2411 10.6892 23.9305 10.6178 23.6257C10.5542 23.3557 10.587 23.0528 10.7606 22.8367C10.9458 22.6072 11.2545 22.5146 11.5496 22.4914C11.9123 22.4625 12.2884 22.4606 12.6511 22.4644Z" fill="#090A0A"/>
</svg>
