<svg width="166" height="166" viewBox="0 0 166 166" fill="none" xmlns="http://www.w3.org/2000/svg">
<path d="M122.389 0H43.5591C19.5236 0 0.0390625 19.4846 0.0390625 43.52V122.35C0.0390625 146.385 19.5236 165.87 43.5591 165.87H122.389C146.424 165.87 165.909 146.385 165.909 122.35V43.52C165.909 19.4846 146.424 0 122.389 0Z" fill="#F8D45A"/>
<path d="M46.9891 77.8201C50.96 77.8201 54.1791 72.3893 54.1791 65.6901C54.1791 58.9908 50.96 53.5601 46.9891 53.5601C43.0181 53.5601 39.7991 58.9908 39.7991 65.6901C39.7991 72.3893 43.0181 77.8201 46.9891 77.8201Z" fill="#333333"/>
<path d="M118.939 77.8201C122.91 77.8201 126.129 72.3893 126.129 65.6901C126.129 58.9908 122.91 53.5601 118.939 53.5601C114.968 53.5601 111.749 58.9908 111.749 65.6901C111.749 72.3893 114.968 77.8201 118.939 77.8201Z" fill="#333333"/>
<path d="M107.669 93.2001C114.179 93.2001 118.409 100.05 115.509 105.88C110.039 116.88 97.679 124.55 83.309 124.55C68.939 124.55 56.579 116.88 51.109 105.88C48.209 100.05 52.429 93.2001 58.949 93.2001H107.679H107.669Z" fill="#333333"/>
</svg>
