<svg width="32" height="32" viewBox="0 0 32 32" fill="none" xmlns="http://www.w3.org/2000/svg">
<path d="M23.5076 0H8.49243C3.80219 0 0 3.8022 0 8.49244V23.5076C0 28.1978 3.80219 32 8.49243 32H23.5076C28.1978 32 32 28.1978 32 23.5076V8.49244C32 3.8022 28.1978 0 23.5076 0Z" fill="#EFCFC5"/>
<path d="M19.6432 24.7982C20.5519 24.7982 21.1769 23.8568 20.793 23.033C20.0136 21.3584 18.1616 20.1797 16.0008 20.1797C13.8401 20.1797 11.9861 21.3584 11.2087 23.033C10.8247 23.8568 11.4498 24.7982 12.3585 24.7982H19.6432Z" fill="#090A0A"/>
<path d="M5.7471 12.4646C5.81848 12.5919 5.96124 12.7019 6.18696 12.7598C8.06216 13.2479 11.7528 12.6247 12.0537 10.2576C12.1039 9.86981 11.9032 8.92449 11.3457 9.374C10.7592 9.84666 10.3579 10.5045 9.75409 10.9675C9.15989 11.4209 8.46537 11.6736 7.7149 11.6466C7.22681 11.6293 6.69627 11.5212 6.21783 11.6698C5.78761 11.8029 5.59083 12.181 5.7471 12.4646Z" fill="#090A0A"/>
<path d="M26.2547 12.4646C26.1833 12.5919 26.0406 12.7019 25.8149 12.7598C23.9397 13.2479 20.2491 12.6247 19.9481 10.2576C19.8979 9.86981 20.0986 8.92449 20.6561 9.374C21.2426 9.84666 21.6439 10.5045 22.2477 10.9675C22.8419 11.4209 23.5365 11.6736 24.2869 11.6466C24.775 11.6293 25.3055 11.5212 25.784 11.6698C26.2142 11.8029 26.411 12.181 26.2547 12.4646Z" fill="#090A0A"/>
<path d="M11.8935 15.6594C12.1096 15.7385 12.3141 15.8349 12.4974 15.97C13.435 16.6722 12.4164 17.5134 11.7604 17.9262C11.0485 18.3738 9.89101 19.1725 9.00357 18.9989C8.86466 18.9718 8.71805 18.912 8.64666 18.7886C8.31098 18.204 9.24858 17.9281 9.62671 17.7641C9.90837 17.6426 10.4601 17.3687 10.4273 16.9905C10.4177 16.8786 10.3482 16.7802 10.2691 16.7011C9.71352 16.159 8.51934 16.3172 8.2994 15.4144C8.27047 15.2928 8.28783 15.1558 8.37078 15.0613C8.45181 14.9687 8.57721 14.9321 8.69682 14.9128C9.43957 14.7874 10.1688 15.042 10.8498 15.316C11.1817 15.4491 11.5501 15.532 11.8955 15.6574L11.8935 15.6594Z" fill="#090A0A"/>
<path d="M20.1063 15.6594C19.8903 15.7385 19.6858 15.8349 19.5025 15.97C18.5649 16.6722 19.5835 17.5134 20.2395 17.9262C20.9513 18.3738 22.1089 19.1725 22.9963 18.9989C23.1352 18.9718 23.2818 18.912 23.3532 18.7886C23.6889 18.204 22.7513 17.9281 22.3732 17.7641C22.0915 17.6426 21.5398 17.3687 21.5726 16.9905C21.5822 16.8786 21.6517 16.7802 21.7307 16.7011C22.2864 16.159 23.4806 16.3172 23.7005 15.4144C23.7294 15.2928 23.7121 15.1558 23.6291 15.0613C23.5481 14.9687 23.4227 14.9321 23.3031 14.9128C22.5603 14.7874 21.8311 15.042 21.1501 15.316C20.8182 15.4491 20.4497 15.532 20.1044 15.6574L20.1063 15.6594Z" fill="#090A0A"/>
</svg>
