<svg width="32" height="32" viewBox="0 0 32 32" fill="none" xmlns="http://www.w3.org/2000/svg">
<path d="M23.5117 32H8.48835C3.80067 32 0 28.1975 0 23.5076V8.49243C0 3.80249 3.80067 0 8.48835 0H23.502C28.1878 0 31.9865 3.79864 31.9904 8.48664L32 23.5018C32.0039 28.1936 28.2013 31.9981 23.5117 31.9981V32Z" fill="#EFCFC5"/>
<path d="M11.4897 10.4877C11.6487 9.50746 10.9834 8.58388 10.0037 8.42477C9.02394 8.26566 8.10079 8.93128 7.94176 9.91147C7.78273 10.8917 8.44803 11.8153 9.42776 11.9744C10.4075 12.1335 11.3306 11.4679 11.4897 10.4877Z" fill="#090A0A"/>
<path d="M24.0304 10.5948C24.2584 9.62831 23.6602 8.6599 22.6942 8.43179C21.7281 8.20369 20.7602 8.80226 20.5322 9.76873C20.3042 10.7352 20.9025 11.7036 21.8685 11.9317C22.8345 12.1598 23.8024 11.5613 24.0304 10.5948Z" fill="#090A0A"/>
<path d="M15.9991 26.11C19.4006 26.11 22.158 23.3512 22.158 19.9481C22.158 16.5449 19.4006 13.7861 15.9991 13.7861C12.5976 13.7861 9.84009 16.5449 9.84009 19.9481C9.84009 23.3512 12.5976 26.11 15.9991 26.11Z" fill="#090A0A"/>
</svg>
