<svg width="32" height="32" viewBox="0 0 32 32" fill="none" xmlns="http://www.w3.org/2000/svg">
<path d="M23.604 0H8.39598C3.75901 0 0 3.75901 0 8.39597V23.604C0 28.241 3.75901 32 8.39598 32H23.604C28.241 32 32 28.241 32 23.604V8.39597C32 3.75901 28.241 0 23.604 0Z" fill="#87B14C"/>
<path d="M20.7097 22.9849C20.9721 23.0813 21.2345 22.8595 21.1959 22.5855C20.8679 20.2878 18.6667 18.511 15.9986 18.511C13.3305 18.511 11.1292 20.2859 10.8013 22.5816C10.7627 22.8575 11.027 23.0775 11.2874 22.981L13.8012 22.053C15.2018 21.536 16.7413 21.5321 18.1439 22.0453L20.7078 22.9829L20.7097 22.9849Z" fill="#090A0A"/>
<path d="M10.6811 16.0009C11.2724 16.0009 11.7518 15.1924 11.7518 14.1952C11.7518 13.1979 11.2724 12.3894 10.6811 12.3894C10.0897 12.3894 9.61035 13.1979 9.61035 14.1952C9.61035 15.1924 10.0897 16.0009 10.6811 16.0009Z" fill="#090A0A"/>
<path d="M21.3902 16.0009C21.9815 16.0009 22.4609 15.1924 22.4609 14.1952C22.4609 13.1979 21.9815 12.3894 21.3902 12.3894C20.7988 12.3894 20.3195 13.1979 20.3195 14.1952C20.3195 15.1924 20.7988 16.0009 21.3902 16.0009Z" fill="#090A0A"/>
<path d="M11.8946 12.8833C11.2503 12.3914 9.73005 11.4866 7.24907 11.4827C7.12368 11.4827 7.00213 11.4229 6.93268 11.3187C6.80342 11.1258 6.69153 10.7998 7.1256 10.5471C7.1256 10.5471 8.33909 9.82939 9.7725 10.3811C9.7725 10.3811 11.3545 11.1721 11.9911 12.1869C12.02 12.2313 12.0393 12.2814 12.0509 12.3335L12.1416 12.7213C12.1763 12.866 12.0123 12.9721 11.8946 12.8833Z" fill="#090A0A"/>
<path d="M20.1016 12.8833C20.746 12.3914 22.2662 11.4866 24.7472 11.4827C24.8726 11.4827 24.9942 11.4229 25.0636 11.3187C25.1929 11.1258 25.3048 10.7998 24.8707 10.5471C24.8707 10.5471 23.6572 9.82939 22.2238 10.3811C22.2238 10.3811 20.6418 11.1721 20.0052 12.1869C19.9762 12.2313 19.9569 12.2814 19.9454 12.3335L19.8547 12.7213C19.82 12.866 19.984 12.9721 20.1016 12.8833Z" fill="#090A0A"/>
</svg>
