<svg width="32" height="32" viewBox="0 0 32 32" fill="none" xmlns="http://www.w3.org/2000/svg">
<path d="M23.604 0H8.39598C3.75901 0 0 3.75901 0 8.39597V23.604C0 28.241 3.75901 32 8.39598 32H23.604C28.241 32 32 28.241 32 23.604V8.39597C32 3.75901 28.241 0 23.604 0Z" fill="#FFAB9F"/>
<path d="M20.7099 22.9846C20.9722 23.0811 21.2346 22.8592 21.196 22.5853C20.868 20.2876 18.6668 18.5107 15.9987 18.5107C13.3306 18.5107 11.1293 20.2856 10.8014 22.5814C10.7628 22.8573 11.0271 23.0772 11.2875 22.9808L13.8013 22.0528C15.2019 21.5358 16.7415 21.5319 18.144 22.0451L20.7079 22.9827L20.7099 22.9846Z" fill="#090A0A"/>
<path d="M10.6813 16.0007C11.2727 16.0007 11.752 15.1922 11.752 14.1949C11.752 13.1976 11.2727 12.3892 10.6813 12.3892C10.09 12.3892 9.6106 13.1976 9.6106 14.1949C9.6106 15.1922 10.09 16.0007 10.6813 16.0007Z" fill="#090A0A"/>
<path d="M21.3903 16.0007C21.9816 16.0007 22.461 15.1922 22.461 14.1949C22.461 13.1976 21.9816 12.3892 21.3903 12.3892C20.799 12.3892 20.3196 13.1976 20.3196 14.1949C20.3196 15.1922 20.799 16.0007 21.3903 16.0007Z" fill="#090A0A"/>
<path d="M11.8948 12.8831C11.2504 12.3912 9.73018 11.4863 7.2492 11.4825C7.1238 11.4825 7.00225 11.4227 6.9328 11.3185C6.80354 11.1256 6.69165 10.7995 7.12572 10.5468C7.12572 10.5468 8.33921 9.82915 9.77262 10.3809C9.77262 10.3809 11.3546 11.1719 11.9912 12.1867C12.0202 12.231 12.0395 12.2812 12.051 12.3333L12.1417 12.721C12.1764 12.8657 12.0124 12.9718 11.8948 12.8831Z" fill="#090A0A"/>
<path d="M20.1018 12.8831C20.7461 12.3912 22.2664 11.4863 24.7473 11.4825C24.8727 11.4825 24.9943 11.4227 25.0637 11.3185C25.193 11.1256 25.3049 10.7995 24.8708 10.5468C24.8708 10.5468 23.6573 9.82915 22.2239 10.3809C22.2239 10.3809 20.6419 11.1719 20.0053 12.1867C19.9764 12.231 19.9571 12.2812 19.9455 12.3333L19.8548 12.721C19.8201 12.8657 19.9841 12.9718 20.1018 12.8831Z" fill="#090A0A"/>
</svg>
