<svg width="32" height="32" viewBox="0 0 32 32" fill="none" xmlns="http://www.w3.org/2000/svg">
<path d="M23.5076 0H8.49243C3.80218 0 0 3.80218 0 8.49243V23.5076C0 28.1978 3.80218 32 8.49243 32H23.5076C28.1978 32 32 28.1978 32 23.5076V8.49243C32 3.80218 28.1978 0 23.5076 0Z" fill="#FFEF9A"/>
<path d="M22.4542 16.9619C23.8491 16.9619 24.7944 18.376 24.2696 19.6686C23.0272 22.7168 19.7475 24.8949 15.8949 24.8949C12.0422 24.8949 8.76253 22.7168 7.52011 19.6686C6.99344 18.376 7.93876 16.9619 9.33552 16.9619H22.4561H22.4542Z" fill="#090A0A"/>
<path d="M5.1492 11.9132C5.13762 11.8862 5.1299 11.8592 5.12412 11.8302C4.81737 10.1074 8.10476 9.66755 9.16005 9.99938C9.70216 10.1692 10.2481 10.4663 10.6803 10.8347C10.8481 10.9775 11.9208 12.3202 11.1491 12.3376C11.0352 12.3395 10.9311 12.2759 10.8385 12.2083C10.1324 11.7106 9.7581 10.9717 8.86873 10.7595C7.89254 10.5261 6.82375 10.8425 6.14081 11.5813C5.92474 11.8148 5.38263 12.4784 5.1492 11.9112V11.9132Z" fill="#090A0A"/>
<path d="M26.8491 11.9132C26.8607 11.8862 26.8684 11.8592 26.8742 11.8302C27.1809 10.1074 23.8935 9.66755 22.8382 9.99938C22.2961 10.1692 21.7501 10.4663 21.318 10.8347C21.1502 10.9775 20.0775 12.3202 20.8492 12.3376C20.963 12.3395 21.0672 12.2759 21.1598 12.2083C21.8659 11.7106 22.2402 10.9717 23.1295 10.7595C24.1057 10.5261 25.1745 10.8425 25.8575 11.5813C26.0735 11.8148 26.6156 12.4784 26.8491 11.9112V11.9132Z" fill="#090A0A"/>
</svg>
