<svg width="32" height="32" viewBox="0 0 32 32" fill="none" xmlns="http://www.w3.org/2000/svg">
<path d="M23.5076 0H8.49243C3.80219 0 0 3.80218 0 8.49243V23.5076C0 28.1978 3.80219 32 8.49243 32H23.5076C28.1978 32 32 28.1978 32 23.5076V8.49243C32 3.80218 28.1978 0 23.5076 0Z" fill="#F47D20"/>
<path d="M9.38552 17.2069C10.1026 17.2069 10.6839 16.3129 10.6839 15.2101C10.6839 14.1073 10.1026 13.2134 9.38552 13.2134C8.66846 13.2134 8.08716 14.1073 8.08716 15.2101C8.08716 16.3129 8.66846 17.2069 9.38552 17.2069Z" fill="#090A0A"/>
<path d="M22.3731 17.2069C23.0901 17.2069 23.6714 16.3129 23.6714 15.2101C23.6714 14.1073 23.0901 13.2134 22.3731 13.2134C21.656 13.2134 21.0747 14.1073 21.0747 15.2101C21.0747 16.3129 21.656 17.2069 22.3731 17.2069Z" fill="#090A0A"/>
<path d="M20.4883 23.7949C21.6014 23.7949 22.3673 22.7416 21.8966 21.8213C20.9436 19.95 18.6729 18.6323 16.024 18.6323C13.3752 18.6323 11.1065 19.95 10.1515 21.8213C9.68269 22.7416 10.4467 23.7949 11.5598 23.7949H20.4863H20.4883Z" fill="#090A0A"/>
<path d="M3.43584 12.1579C3.52265 12.3007 3.69821 12.4222 3.97409 12.4878C6.27372 13.0338 10.7939 12.3373 11.1643 9.69235C11.2241 9.25828 10.981 8.20299 10.2981 8.70459C9.58041 9.2332 9.08846 9.96823 8.34764 10.4853C7.62032 10.9926 6.76953 11.2743 5.84736 11.2434C5.24931 11.2241 4.59916 11.1026 4.01268 11.2685C3.486 11.4171 3.24484 11.8396 3.43584 12.156V12.1579Z" fill="#090A0A"/>
<path d="M28.5639 12.1579C28.477 12.3007 28.3015 12.4222 28.0256 12.4878C25.726 13.0338 21.2058 12.3373 20.8354 9.69235C20.7756 9.25828 21.0187 8.20299 21.7016 8.70459C22.4193 9.2332 22.9112 9.96823 23.6521 10.4853C24.3794 10.9926 25.2302 11.2743 26.1523 11.2434C26.7504 11.2241 27.4005 11.1026 27.987 11.2685C28.5137 11.4171 28.7548 11.8396 28.5639 12.156V12.1579Z" fill="#090A0A"/>
</svg>
