<svg width="32" height="32" viewBox="0 0 32 32" fill="none" xmlns="http://www.w3.org/2000/svg">
<path d="M23.604 0H8.39598C3.75901 0 0 3.759 0 8.39597V23.604C0 28.241 3.75901 32 8.39598 32H23.604C28.241 32 32 28.241 32 23.604V8.39597C32 3.759 28.241 0 23.604 0Z" fill="#A5D4FF"/>
<path d="M21.3294 23.3128C22.0683 23.3128 22.6201 22.6144 22.4272 21.9025C21.7133 19.2421 19.0279 17.2646 15.8215 17.2646C12.6151 17.2646 9.92966 19.2421 9.21585 21.9025C9.02486 22.6163 9.57661 23.3128 10.3136 23.3128L14.4961 22.7533C15.3334 22.6414 16.1823 22.6395 17.0195 22.7494L21.3256 23.3128H21.3294Z" fill="#333333"/>
<path d="M11.4537 13.0561C11.6818 12.0896 11.0833 11.1212 10.1168 10.8931C9.15031 10.665 8.18191 11.2636 7.9538 12.23C7.72569 13.1965 8.32425 14.1649 9.29073 14.393C10.2572 14.6211 11.2256 14.0226 11.4537 13.0561Z" fill="#333333"/>
<path d="M24.0388 13.0569C24.2669 12.0905 23.6683 11.1221 22.7019 10.894C21.7354 10.6658 20.767 11.2644 20.5389 12.2309C20.3108 13.1974 20.9093 14.1658 21.8758 14.3939C22.8423 14.622 23.8107 14.0234 24.0388 13.0569Z" fill="#333333"/>
</svg>
