<svg width="32" height="32" viewBox="0 0 32 32" fill="none" xmlns="http://www.w3.org/2000/svg">
<path d="M23.5117 32H8.48835C3.80067 32 0 28.1975 0 23.5076V8.49243C0 3.80249 3.80067 0 8.48835 0H23.502C28.1878 0 31.9865 3.79864 31.9904 8.48664L32 23.5018C32.0039 28.1936 28.2013 31.9981 23.5117 31.9981V32Z" fill="#98D6E0"/>
<path d="M11.0026 9.7968C11.126 9.77172 11.2764 9.75628 11.3555 9.85274C11.3941 9.90098 11.4056 9.96658 11.4076 10.0283C11.4307 10.4778 11.1395 10.8926 10.777 11.1569C10.1233 11.6334 9.26908 11.7145 8.46112 11.7434C7.55097 11.7743 6.58489 11.7434 5.81743 11.2572C5.50312 11.0585 5.21966 10.7576 5.17339 10.3891C5.11361 9.91449 5.51662 9.53057 5.97555 9.66175C6.40556 9.78522 6.75458 10.065 7.2058 10.1691C8.4804 10.4624 9.75693 10.0592 11.0007 9.7968H11.0026Z" fill="#090A0A"/>
<path d="M21.0625 9.7968C20.9391 9.77172 20.7887 9.75628 20.7096 9.85274C20.671 9.90098 20.6595 9.96658 20.6575 10.0283C20.6344 10.4778 20.9256 10.8926 21.2881 11.1569C21.9418 11.6334 22.796 11.7145 23.604 11.7434C24.5141 11.7743 25.4802 11.7434 26.2477 11.2572C26.562 11.0585 26.8454 10.7576 26.8917 10.3891C26.9515 9.91449 26.5485 9.53057 26.0895 9.66175C25.6595 9.78522 25.3105 10.065 24.8593 10.1691C23.5847 10.4624 22.3082 10.0592 21.0644 9.7968H21.0625Z" fill="#090A0A"/>
<path d="M20.4262 16.6069H11.6486C10.0213 16.6069 8.70215 17.9267 8.70215 19.5548V22.466C8.70215 24.094 10.0213 25.4138 11.6486 25.4138H20.4262C22.0534 25.4138 23.3726 24.094 23.3726 22.466V19.5548C23.3726 17.9267 22.0534 16.6069 20.4262 16.6069Z" fill="white"/>
<path d="M0 12.5805C0.0347093 12.6634 0.769388 13.1708 0.842663 13.221L9.99627 19.5025L9.91914 18.3546C9.64532 18.2852 1.44043 12.5554 0 11.5483V12.5805Z" fill="white"/>
<path d="M0 16.165L9.99627 22.9848L9.91914 21.8369C9.64532 21.7674 1.44043 16.1032 0 15.0962V16.165Z" fill="white"/>
<path d="M31.9981 13.2229L22.0674 19.5045L22.1445 18.3566C22.4183 18.2871 30.5557 13.4236 31.9981 12.4165V13.2229Z" fill="white"/>
<path d="M31.9981 16.7034L22.0674 22.9849L22.1445 21.8371C22.4183 21.7676 30.5557 16.904 31.9981 15.897V16.7034Z" fill="white"/>
</svg>
