<svg width="32" height="32" viewBox="0 0 32 32" fill="none" xmlns="http://www.w3.org/2000/svg">
<path d="M23.5095 0H8.4905C3.80133 0 0 3.80133 0 8.49051V23.5095C0 28.1987 3.80133 32 8.4905 32H23.5095C28.1987 32 32 28.1987 32 23.5095V8.49051C32 3.80133 28.1987 0 23.5095 0Z" fill="#FFDCC1"/>
<path d="M11.0633 15.0346C11.1462 15.0172 11.2485 15.0076 11.3006 15.0732C11.3276 15.106 11.3334 15.1504 11.3353 15.1909C11.3507 15.4938 11.1559 15.7716 10.9109 15.951C10.471 16.2712 9.8961 16.3272 9.35206 16.3465C8.73857 16.3677 8.08842 16.3465 7.57139 16.0185C7.35918 15.8835 7.17011 15.6828 7.13732 15.4339C7.0968 15.1137 7.36883 14.8552 7.6775 14.9439C7.96688 15.0269 8.20225 15.2159 8.50514 15.2854C9.36364 15.4822 10.2241 15.2102 11.0614 15.0346H11.0633Z" fill="#090A0A"/>
<path d="M20.9333 15.0346C20.8503 15.0172 20.7481 15.0076 20.696 15.0732C20.669 15.106 20.6632 15.1504 20.6613 15.1909C20.6458 15.4938 20.8407 15.7716 21.0857 15.951C21.5255 16.2712 22.1005 16.3272 22.6445 16.3465C23.258 16.3677 23.9081 16.3465 24.4252 16.0185C24.6374 15.8835 24.8264 15.6828 24.8592 15.4339C24.8998 15.1137 24.6277 14.8552 24.3191 14.9439C24.0297 15.0269 23.7943 15.2159 23.4914 15.2854C22.6329 15.4822 21.7725 15.2102 20.9352 15.0346H20.9333Z" fill="#090A0A"/>
<path d="M16.2267 18.187C16.9598 18.1966 17.6833 18.4378 18.2794 18.949C19.2074 19.7477 19.6221 21.1599 19.6048 22.3502C19.5874 23.4827 19.2286 24.6557 18.3392 25.4061C16.8865 26.6292 14.8338 26.3071 13.5316 25.0029C11.1509 22.6165 12.7078 18.1349 16.2267 18.187Z" fill="#090A0A"/>
<path d="M23.2338 10.1844C23.5174 9.86218 23.8589 9.54772 24.237 9.33936C24.3836 9.25834 24.5592 9.20625 24.727 9.2429C24.8968 9.27956 24.9161 9.44354 24.9392 9.59016C24.9952 9.93935 25.0338 10.2905 25.0839 10.6416C25.1071 10.8036 25.1341 10.9638 25.163 11.1239C25.2093 11.3786 25.244 11.8898 25.6453 11.7548C25.7302 11.7258 25.8016 11.6699 25.8672 11.6081C25.9887 11.4943 26.0987 11.3496 26.2588 11.2879C26.5752 11.1644 26.772 11.4885 26.6292 11.7548C26.5656 11.8744 26.4691 11.9747 26.3746 12.0692C26.1894 12.2525 26.0061 12.4358 25.8189 12.619C25.6588 12.7772 25.5122 12.9663 25.3019 13.0608C25.1186 13.1438 24.9315 13.057 24.8389 12.8853C24.7714 12.7579 24.7502 12.6075 24.7309 12.4647C24.7077 12.2834 24.6826 12.1001 24.6576 11.9187C24.6035 11.5117 24.5476 11.1046 24.4936 10.6975C24.4762 10.5741 24.4743 10.4024 24.3894 10.3059C24.3045 10.2094 24.1637 10.1824 24.046 10.2249C23.9322 10.2654 23.8434 10.358 23.7778 10.4602C23.6196 10.7072 23.554 11.0371 23.2878 11.2011C23.1335 11.2956 22.927 11.2686 22.8267 11.1104C22.6878 10.8924 22.873 10.6493 23.0004 10.4776C23.0756 10.3773 23.1528 10.2808 23.2357 10.1863L23.2338 10.1844Z" fill="#090A0A"/>
<path d="M25.7588 8.30484C25.9904 8.04054 26.272 7.78202 26.5807 7.61032C26.7003 7.54473 26.845 7.50228 26.982 7.53122C27.1209 7.56209 27.1382 7.69713 27.1556 7.81675C27.2 8.1042 27.2328 8.39165 27.2733 8.67911C27.2926 8.81222 27.3138 8.94341 27.3389 9.0746C27.3775 9.28488 27.4045 9.70352 27.7344 9.59163C27.8038 9.56848 27.8636 9.52218 27.9157 9.47202C28.016 9.37942 28.1067 9.2598 28.2379 9.20964C28.4964 9.10932 28.6585 9.37363 28.5408 9.59356C28.4887 9.69002 28.4096 9.77491 28.3324 9.85207C28.1819 10.0026 28.0295 10.153 27.8771 10.3035C27.7459 10.4328 27.6244 10.589 27.4527 10.6662C27.3022 10.7337 27.1498 10.6643 27.0726 10.5215C27.0167 10.4173 26.9993 10.2939 26.9839 10.1762C26.9646 10.0276 26.9434 9.87715 26.9241 9.7286C26.8797 9.39485 26.8334 9.06109 26.789 8.72734C26.7755 8.62509 26.7736 8.48426 26.7022 8.40516C26.6328 8.32606 26.517 8.30291 26.4206 8.33957C26.328 8.37236 26.2547 8.4476 26.2006 8.53249C26.0714 8.73506 26.0174 9.00515 25.7974 9.14019C25.6701 9.21736 25.5003 9.19614 25.4193 9.06495C25.3055 8.88553 25.456 8.68683 25.5621 8.54599C25.6238 8.46496 25.6875 8.38394 25.755 8.30677L25.7588 8.30484Z" fill="#090A0A"/>
<path d="M28.1438 6.48968C28.3406 6.26589 28.576 6.04789 28.8383 5.9032C28.9406 5.84725 29.0621 5.8106 29.1779 5.83568C29.2956 5.86076 29.3091 5.97458 29.3245 6.07683C29.3631 6.31798 29.3901 6.56299 29.4248 6.80415C29.4403 6.91604 29.4595 7.02794 29.4808 7.1379C29.5136 7.31539 29.5367 7.66844 29.8145 7.57583C29.8724 7.55654 29.9226 7.51796 29.9689 7.47552C30.0537 7.39642 30.129 7.2961 30.2409 7.25366C30.4589 7.16877 30.5959 7.39256 30.4975 7.57776C30.4531 7.66072 30.3875 7.73017 30.3219 7.79577C30.1946 7.92309 30.0673 8.05042 29.938 8.17582C29.8261 8.28579 29.7258 8.41698 29.5792 8.48257C29.4518 8.54045 29.3226 8.48064 29.2589 8.36103C29.2126 8.27228 29.1972 8.16811 29.1837 8.06972C29.1663 7.94432 29.1489 7.81699 29.1335 7.69159C29.0949 7.40992 29.0563 7.12826 29.0197 6.84466C29.0081 6.75978 29.0062 6.64016 28.9464 6.57264C28.8885 6.50705 28.7901 6.48775 28.7091 6.51669C28.63 6.54563 28.5682 6.6093 28.5239 6.67875C28.4139 6.85045 28.3695 7.0781 28.1843 7.19192C28.0782 7.25751 27.9335 7.23822 27.8641 7.12826C27.7676 6.97585 27.8949 6.80801 27.9837 6.69032C28.0358 6.62087 28.0898 6.55335 28.1477 6.48968H28.1438Z" fill="#090A0A"/>
</svg>
