<svg width="32" height="32" viewBox="0 0 32 32" fill="none" xmlns="http://www.w3.org/2000/svg">
<path d="M23.5095 0H8.4905C3.80133 0 0 3.80133 0 8.49051V23.5095C0 28.1987 3.80133 32 8.4905 32H23.5095C28.1987 32 32 28.1987 32 23.5095V8.49051C32 3.80133 28.1987 0 23.5095 0Z" fill="#F2CEFF"/>
<path d="M11.0633 15.0346C11.1462 15.0172 11.2485 15.0076 11.3006 15.0732C11.3276 15.106 11.3334 15.1504 11.3353 15.1909C11.3507 15.4938 11.1559 15.7716 10.9109 15.951C10.471 16.2712 9.8961 16.3272 9.35206 16.3465C8.73857 16.3677 8.08842 16.3465 7.57139 16.0185C7.35918 15.8835 7.17011 15.6828 7.13732 15.4339C7.0968 15.1137 7.36883 14.8552 7.6775 14.9439C7.96688 15.0269 8.20225 15.2159 8.50514 15.2854C9.36364 15.4822 10.2241 15.2102 11.0614 15.0346H11.0633Z" fill="#090A0A"/>
<path d="M20.9333 15.0346C20.8503 15.0172 20.7481 15.0076 20.696 15.0732C20.669 15.106 20.6632 15.1504 20.6613 15.1909C20.6458 15.4938 20.8407 15.7716 21.0857 15.951C21.5255 16.2712 22.1005 16.3272 22.6445 16.3465C23.258 16.3677 23.9081 16.3465 24.4252 16.0185C24.6374 15.8835 24.8264 15.6828 24.8592 15.4339C24.8998 15.1137 24.6277 14.8552 24.3191 14.9439C24.0297 15.0269 23.7943 15.2159 23.4914 15.2854C22.6329 15.4822 21.7725 15.2102 20.9352 15.0346H20.9333Z" fill="#090A0A"/>
<path d="M16.2267 18.187C16.9598 18.1966 17.6833 18.4378 18.2794 18.949C19.2074 19.7477 19.6221 21.1599 19.6048 22.3502C19.5874 23.4827 19.2286 24.6557 18.3392 25.4061C16.8865 26.6292 14.8338 26.3071 13.5316 25.0029C11.1509 22.6165 12.7078 18.1349 16.2267 18.187Z" fill="#090A0A"/>
<path d="M23.2338 10.1844C23.5174 9.86218 23.8589 9.54772 24.237 9.33936C24.3836 9.25834 24.5592 9.20625 24.727 9.2429C24.8968 9.27956 24.9161 9.44354 24.9392 9.59016C24.9952 9.93935 25.0338 10.2905 25.0839 10.6416C25.1071 10.8036 25.1341 10.9638 25.163 11.1239C25.2093 11.3786 25.244 11.8898 25.6453 11.7548C25.7302 11.7258 25.8016 11.6699 25.8672 11.6081C25.9887 11.4943 26.0987 11.3496 26.2588 11.2879C26.5752 11.1644 26.772 11.4885 26.6292 11.7548C26.5656 11.8744 26.4691 11.9747 26.3746 12.0692C26.1894 12.2525 26.0061 12.4358 25.8189 12.619C25.6588 12.7772 25.5122 12.9663 25.3019 13.0608C25.1186 13.1438 24.9315 13.057 24.8389 12.8853C24.7714 12.7579 24.7502 12.6075 24.7309 12.4647C24.7077 12.2834 24.6826 12.1001 24.6576 11.9187C24.6035 11.5117 24.5476 11.1046 24.4936 10.6975C24.4762 10.5741 24.4743 10.4024 24.3894 10.3059C24.3045 10.2094 24.1637 10.1824 24.046 10.2249C23.9322 10.2654 23.8434 10.358 23.7778 10.4602C23.6196 10.7072 23.554 11.0371 23.2878 11.2011C23.1335 11.2956 22.927 11.2686 22.8267 11.1104C22.6878 10.8924 22.873 10.6493 23.0004 10.4776C23.0756 10.3773 23.1528 10.2808 23.2357 10.1863L23.2338 10.1844Z" fill="#090A0A"/>
<path d="M25.759 8.30533C25.9905 8.04102 26.2721 7.78251 26.5808 7.61081C26.7004 7.54521 26.8451 7.50277 26.9821 7.53171C27.121 7.56258 27.1384 7.69762 27.1557 7.81723C27.2001 8.10469 27.2329 8.39214 27.2734 8.6796C27.2927 8.81271 27.3139 8.9439 27.339 9.07509C27.3776 9.28537 27.4046 9.70401 27.7345 9.59212C27.8039 9.56897 27.8637 9.52267 27.9158 9.47251C28.0162 9.3799 28.1068 9.26029 28.238 9.21013C28.4965 9.10981 28.6586 9.37412 28.5409 9.59405C28.4888 9.69051 28.4097 9.77539 28.3325 9.85256C28.1821 10.003 28.0297 10.1535 27.8773 10.304C27.7461 10.4333 27.6245 10.5895 27.4528 10.6667C27.3023 10.7342 27.1499 10.6648 27.0728 10.522C27.0168 10.4178 26.9995 10.2944 26.984 10.1767C26.9647 10.0281 26.9435 9.87764 26.9242 9.72909C26.8798 9.39534 26.8335 9.06158 26.7892 8.72783C26.7757 8.62558 26.7737 8.48474 26.7024 8.40565C26.6329 8.32655 26.5171 8.3034 26.4207 8.34005C26.3281 8.37285 26.2548 8.44809 26.2008 8.53298C26.0715 8.73554 26.0175 9.00563 25.7976 9.14068C25.6702 9.21785 25.5004 9.19663 25.4194 9.06544C25.3056 8.88602 25.4561 8.68731 25.5622 8.54648C25.6239 8.46545 25.6876 8.38442 25.7551 8.30726L25.759 8.30533Z" fill="#090A0A"/>
<path d="M28.1437 6.48993C28.3405 6.26614 28.5758 6.04814 28.8382 5.90344C28.9405 5.8475 29.062 5.81084 29.1778 5.83592C29.2954 5.861 29.3089 5.97483 29.3244 6.07707C29.363 6.31823 29.39 6.56324 29.4247 6.80439C29.4401 6.91629 29.4594 7.02818 29.4806 7.13815C29.5134 7.31563 29.5366 7.66868 29.8144 7.57608C29.8723 7.55679 29.9224 7.5182 29.9687 7.47576C30.0536 7.39666 30.1289 7.29634 30.2408 7.2539C30.4588 7.16901 30.5957 7.3928 30.4973 7.57801C30.453 7.66097 30.3874 7.73042 30.3218 7.79601C30.1945 7.92334 30.0671 8.05067 29.9379 8.17607C29.826 8.28603 29.7257 8.41722 29.579 8.48281C29.4517 8.54069 29.3225 8.48088 29.2588 8.36127C29.2125 8.27253 29.197 8.16835 29.1835 8.06996C29.1662 7.94456 29.1488 7.81723 29.1334 7.69183C29.0948 7.41017 29.0562 7.1285 29.0196 6.84491C29.008 6.76002 29.0061 6.64041 28.9462 6.57288C28.8884 6.50729 28.79 6.488 28.709 6.51694C28.6299 6.54588 28.5681 6.60954 28.5238 6.67899C28.4138 6.85069 28.3694 7.07834 28.1842 7.19216C28.0781 7.25776 27.9334 7.23847 27.864 7.1285C27.7675 6.97609 27.8948 6.80825 27.9836 6.69057C28.0357 6.62111 28.0897 6.55359 28.1476 6.48993H28.1437Z" fill="#090A0A"/>
</svg>
