<svg width="32" height="32" viewBox="0 0 32 32" fill="none" xmlns="http://www.w3.org/2000/svg">
<path d="M23.604 0H8.39597C3.759 0 0 3.75901 0 8.39597V23.604C0 28.241 3.759 32 8.39597 32H23.604C28.241 32 32 28.241 32 23.604V8.39597C32 3.75901 28.241 0 23.604 0Z" fill="#C4DBFF"/>
<path d="M21.9039 24.2888C22.6428 24.2888 23.1945 23.5905 23.0016 22.8786C22.2878 20.2182 19.6023 18.2407 16.396 18.2407C13.1896 18.2407 10.5041 20.2182 9.79031 22.8786C9.59932 23.5924 10.1511 24.2888 10.888 24.2888L15.0706 23.7294C15.9079 23.6175 16.7567 23.6155 17.594 23.7255L21.9 24.2888H21.9039Z" fill="#090A0A"/>
<path d="M10.7932 12.0885C11.4665 11.6255 11.9951 10.9869 12.5604 10.3966C12.6453 10.3079 12.7417 10.2133 12.8652 10.196C13.0311 10.1709 13.1893 10.3021 13.2491 10.4583C13.3089 10.6146 13.2935 10.7902 13.2646 10.9542C13.0196 12.4107 11.943 13.6184 10.6794 14.3843C10.0061 14.7914 9.25757 15.102 8.47238 15.1637C7.74506 15.2216 6.92707 15.0557 6.35216 14.5811C5.85828 14.1721 5.59205 13.4853 6.29043 13.1998C6.87305 12.9605 7.78365 13.0975 8.41257 12.9837C9.25178 12.8332 10.0813 12.5747 10.7913 12.0885H10.7932Z" fill="#090A0A"/>
<path d="M21.2034 12.0885C20.5301 11.6255 20.0015 10.9869 19.4363 10.3966C19.3514 10.3079 19.2549 10.2133 19.1315 10.196C18.9655 10.1709 18.8073 10.3021 18.7475 10.4583C18.6877 10.6146 18.7032 10.7902 18.7321 10.9542C18.9771 12.4107 20.0536 13.6184 21.3173 14.3843C21.9906 14.7914 22.7391 15.102 23.5243 15.1637C24.2516 15.2216 25.0696 15.0557 25.6445 14.5811C26.1384 14.1721 26.4046 13.4853 25.7062 13.1998C25.1236 12.9605 24.213 13.0975 23.5841 12.9837C22.7449 12.8332 21.9153 12.5747 21.2054 12.0885H21.2034Z" fill="#090A0A"/>
</svg>
