<svg width="20" height="20" viewBox="0 0 20 20" fill="none" xmlns="http://www.w3.org/2000/svg">
<g clip-path="url(#clip0_380_3032)">
<path d="M1.66675 18.3334L13.3334 6.66675" stroke="#090A0A" stroke-width="1.5" stroke-linecap="round" stroke-linejoin="round"/>
<path d="M2.89172 10.4417L4.16672 9.16675L5.44172 10.4417C5.98622 10.9884 6.29194 11.7285 6.29194 12.5001C6.29194 13.2716 5.98622 14.0118 5.44172 14.5584L4.16672 15.8334L2.89172 14.5584C2.34722 14.0118 2.0415 13.2716 2.0415 12.5001C2.0415 11.7285 2.34722 10.9884 2.89172 10.4417Z" stroke="#090A0A" stroke-width="1.5" stroke-linecap="round" stroke-linejoin="round"/>
<path d="M6.22497 7.10825L7.49997 5.83325L8.77497 7.10825C9.31947 7.6549 9.62519 8.39503 9.62519 9.16659C9.62519 9.93815 9.31947 10.6783 8.77497 11.2249L7.49997 12.4999L6.22497 11.2249C5.68047 10.6783 5.37476 9.93815 5.37476 9.16659C5.37476 8.39503 5.68047 7.6549 6.22497 7.10825Z" stroke="#090A0A" stroke-width="1.5" stroke-linecap="round" stroke-linejoin="round"/>
<path d="M9.55847 3.775L10.8335 2.5L12.1085 3.775C12.653 4.32165 12.9587 5.06177 12.9587 5.83333C12.9587 6.60489 12.653 7.34502 12.1085 7.89167L10.8335 9.16667L9.55847 7.89167C9.01397 7.34502 8.70825 6.60489 8.70825 5.83333C8.70825 5.06177 9.01397 4.32165 9.55847 3.775Z" stroke="#090A0A" stroke-width="1.5" stroke-linecap="round" stroke-linejoin="round"/>
<path d="M16.6667 1.66675H18.3334V3.33341C18.3334 4.21747 17.9822 5.06532 17.3571 5.69044C16.7319 6.31556 15.8841 6.66675 15 6.66675H13.3334V5.00008C13.3334 4.11603 13.6846 3.26818 14.3097 2.64306C14.9348 2.01794 15.7827 1.66675 16.6667 1.66675Z" stroke="#090A0A" stroke-width="1.5" stroke-linecap="round" stroke-linejoin="round"/>
<path d="M9.55841 14.5582L10.8334 15.8332L9.55841 17.1082C9.01177 17.6527 8.27164 17.9584 7.50008 17.9584C6.72852 17.9584 5.9884 17.6527 5.44175 17.1082L4.16675 15.8332L5.44175 14.5582C5.9884 14.0137 6.72852 13.708 7.50008 13.708C8.27164 13.708 9.01177 14.0137 9.55841 14.5582Z" stroke="#090A0A" stroke-width="1.5" stroke-linecap="round" stroke-linejoin="round"/>
<path d="M12.8917 11.225L14.1667 12.5L12.8917 13.775C12.345 14.3195 11.6049 14.6252 10.8333 14.6252C10.0618 14.6252 9.32165 14.3195 8.775 13.775L7.5 12.5L8.775 11.225C9.32165 10.6805 10.0618 10.3748 10.8333 10.3748C11.6049 10.3748 12.345 10.6805 12.8917 11.225Z" stroke="#090A0A" stroke-width="1.5" stroke-linecap="round" stroke-linejoin="round"/>
<path d="M16.225 7.89172L17.5 9.16672L16.225 10.4417C15.6784 10.9862 14.9383 11.2919 14.1667 11.2919C13.3951 11.2919 12.655 10.9862 12.1084 10.4417L10.8334 9.16672L12.1084 7.89172C12.655 7.34722 13.3951 7.0415 14.1667 7.0415C14.9383 7.0415 15.6784 7.34722 16.225 7.89172Z" stroke="#090A0A" stroke-width="1.5" stroke-linecap="round" stroke-linejoin="round"/>
</g>
<defs>
<clipPath id="clip0_380_3032">
<rect width="20" height="20" fill="white"/>
</clipPath>
</defs>
</svg>
