<svg width="24" height="24" viewBox="0 0 24 24" fill="none" xmlns="http://www.w3.org/2000/svg">
<path d="M12 13C13.6569 13 15 11.6569 15 10C15 8.34315 13.6569 7 12 7C10.3431 7 9 8.34315 9 10C9 11.6569 10.3431 13 12 13Z" stroke="#26272C" stroke-width="1.5" stroke-linecap="round" stroke-linejoin="round"/>
<path d="M10.5812 20.5901C11.3647 21.3686 12.6353 21.3686 13.4188 20.5901C16.8939 17.1372 20 13.8934 20 10C20 5.58172 16.4183 2 12 2C7.58172 2 4 5.58172 4 10C4 13.8934 7.10609 17.1372 10.5812 20.5901Z" stroke="#26272C" stroke-width="1.5" stroke-linecap="round" stroke-linejoin="round"/>
</svg>
