<svg width="20" height="20" viewBox="0 0 20 20" fill="none" xmlns="http://www.w3.org/2000/svg">
<path d="M10 2.5H4.16671C3.61417 2.5 3.08427 2.71949 2.69357 3.11019C2.30287 3.50089 2.08337 4.0308 2.08337 4.58333V15.4167C2.08337 15.9692 2.30287 16.4991 2.69357 16.8898C3.08427 17.2805 3.61417 17.5 4.16671 17.5H12.5" stroke="#090A0A" stroke-width="1.5" stroke-linecap="round" stroke-linejoin="round"/>
<path d="M7.91671 2.5V9.80167L2.08337 11.6667M7.91671 10L12.9167 11.6667" stroke="#090A0A" stroke-width="1.5" stroke-linecap="round" stroke-linejoin="round"/>
<path d="M15.4167 7.5V17.5" stroke="#090A0A" stroke-width="1.5" stroke-linecap="round" stroke-linejoin="round"/>
<path d="M12.9167 5.5555C12.9167 2.963 14.5834 1.66675 15.4167 1.66675C16.2501 1.66675 17.9167 2.963 17.9167 5.5555C17.9167 8.14841 12.9167 8.14841 12.9167 5.5555Z" stroke="#090A0A" stroke-width="1.5" stroke-linecap="round" stroke-linejoin="round"/>
</svg>
