<svg width="20" height="20" viewBox="0 0 20 20" fill="none" xmlns="http://www.w3.org/2000/svg">
<path d="M10.4167 9.16667C11.5673 9.16667 12.5 8.23393 12.5 7.08333C12.5 5.93274 11.5673 5 10.4167 5C9.26611 5 8.33337 5.93274 8.33337 7.08333C8.33337 8.23393 9.26611 9.16667 10.4167 9.16667Z" stroke="#090A0A" stroke-width="1.5" stroke-linecap="round" stroke-linejoin="round"/>
<path d="M10.4167 1.66663C9.25601 1.66593 8.12582 2.03807 7.19263 2.72821C6.25944 3.41835 5.57261 4.38999 5.23334 5.49996C4.31667 8.10829 4.58334 8.74996 2.58334 10.5666C2.18481 10.8934 1.89698 11.3353 1.75926 11.8319C1.62154 12.3285 1.64065 12.8555 1.81398 13.3408C1.98731 13.8261 2.30638 14.246 2.72753 14.543C3.14868 14.84 3.65133 14.9996 4.16667 15C7.5 15 11.1667 13.5 13.6667 11.4166C14.5762 10.7345 15.248 9.78352 15.587 8.69837C15.9259 7.61322 15.9149 6.44892 15.5554 5.37039C15.1959 4.29187 14.5061 3.3538 13.5839 2.68907C12.6616 2.02433 11.5535 1.66663 10.4167 1.66663Z" stroke="#090A0A" stroke-width="1.5" stroke-linecap="round" stroke-linejoin="round"/>
<path d="M15.4167 5L17.2417 8.75C17.4145 9.2886 17.5017 9.85101 17.5 10.4167C17.5006 11.2577 17.3051 12.0873 16.929 12.8395C16.5529 13.5918 16.0065 14.2459 15.3333 14.75C12.8333 16.8333 9.16667 18.3333 5.83333 18.3333C5.36937 18.3327 4.91475 18.203 4.52032 17.9587C4.12589 17.7144 3.80723 17.3651 3.6 16.95L2 13.75" stroke="#090A0A" stroke-width="1.5" stroke-linecap="round" stroke-linejoin="round"/>
</svg>
