<svg width="20" height="20" viewBox="0 0 20 20" fill="none" xmlns="http://www.w3.org/2000/svg">
<path d="M7.19994 11.6668L5.4916 9.96678M12.7833 12.5001L10.7333 10.4501M1.8916 18.0834C1.8916 18.0834 10.1166 15.1668 12.4999 12.7834C12.8485 12.4354 13.1251 12.0222 13.3139 11.5673C13.5028 11.1124 13.6002 10.6248 13.6005 10.1322C13.6009 9.63968 13.5043 9.15189 13.3162 8.6967C13.128 8.24151 12.8521 7.82783 12.5041 7.47928C12.1561 7.13073 11.7429 6.85413 11.288 6.66529C10.8331 6.47645 10.3454 6.37905 9.85288 6.37866C9.36034 6.37828 8.87255 6.47491 8.41736 6.66303C7.96217 6.85116 7.54849 7.12711 7.19994 7.47511C4.80827 9.86678 1.8916 18.0834 1.8916 18.0834Z" stroke="#090A0A" stroke-width="1.5" stroke-linecap="round" stroke-linejoin="round"/>
<path d="M18.3333 7.49992C18.3333 7.49992 17.225 5.83325 15.4167 5.83325C14.05 5.83325 12.5 7.49992 12.5 7.49992C12.5 7.49992 13.6083 9.16659 15.4167 9.16659C17.225 9.16659 18.3333 7.49992 18.3333 7.49992Z" stroke="#090A0A" stroke-width="1.5" stroke-linecap="round" stroke-linejoin="round"/>
<path d="M12.4999 1.66675C12.4999 1.66675 10.8333 2.77508 10.8333 4.58341C10.8333 6.39175 12.4999 7.50008 12.4999 7.50008C12.4999 7.50008 14.1666 5.96675 14.1666 4.58341C14.1666 2.77508 12.4999 1.66675 12.4999 1.66675Z" stroke="#090A0A" stroke-width="1.5" stroke-linecap="round" stroke-linejoin="round"/>
</svg>
